<svg id="logo" viewBox="151.122 81.687 88.1641 42.783" width="88.1641" height="42.783" xmlns="http://www.w3.org/2000/svg" style="white-space: pre;">
    <title>Logo</title>
    <path d="M156 116.7q-1.4 0-2.4-.6t-1.8-1.5l1-.9q.7.9 1.5 1.3t1.8.4q1.3 0 2-.6.6-.6.6-1.6 0-.9-.5-1.3-.5-.5-1.7-.8l-1-.2q-1.6-.4-2.4-1.1-1-.8-1-2.1 0-.8.4-1.4.3-.6.8-1 .5-.5 1.2-.7l1.6-.2q1.4 0 2.3.5 1 .5 1.7 1.4l-1.1.8q-.5-.7-1.2-1-.7-.4-1.7-.4-1.2 0-1.8.5-.7.4-.7 1.4 0 .9.6 1.3.5.4 1.6.7l1 .2q1.8.4 2.5 1.2.8.8.8 2.1 0 .8-.3 1.5-.2.7-.8 1.1-.5.5-1.3.7-.7.3-1.7.3Zm11 0q-1.1 0-2-.4-1-.4-1.7-1.2-.6-.8-1-2-.3-1-.3-2.6 0-1.5.3-2.6.4-1.1 1-2 .7-.7 1.6-1.1 1-.4 2.1-.4t2 .4q1 .4 1.7 1.2.6.8 1 1.9.3 1.1.3 2.6t-.3 2.7q-.4 1.1-1 1.9-.7.8-1.6 1.2-1 .4-2 .4Zm0-1.3q.8 0 1.4-.3.7-.2 1.1-.7.5-.6.8-1.3.2-.7.2-1.6v-2q0-.8-.2-1.5-.3-.8-.8-1.3t-1-.7q-.7-.3-1.5-.3t-1.4.3q-.7.2-1.1.7-.5.5-.7 1.3-.3.7-.3 1.6v2q0 .8.3 1.5.2.7.7 1.2.4.6 1.1.8.6.3 1.4.3Zm7.6 1v-11.8h7v1.3H176v4h5.2v1.2H176v5.4Zm13.5-10.5v10.6h-1.4v-10.6h-3.8v-1.3h9v1.3Zm7.6 10.6-2.9-11.9h1.6l1.2 5.7 1 4.4 1.2-4.4 1.5-5.7h1.6l1.4 5.7 1.1 4.4 1.1-4.4 1.4-5.7h1.4l-3 11.9h-1.6l-1.6-6-1-4.3-1.2 4.3-1.6 6Zm20.9 0-1.2-3.5h-4.8l-1.2 3.5H208l4.1-11.9h1.8l4.2 11.9Zm-3.6-10.6-2 5.8h4Zm8.5 10.6H220v-11.9h4.8q1.5 0 2.4.9.9.8.9 2.5 0 1.3-.6 2.1-.6.9-1.8 1.1l2.7 5.3h-1.6l-2.6-5.1h-2.7Zm3.3-6.4q.8 0 1.3-.4t.5-1.3v-.8q0-.8-.5-1.3-.5-.4-1.3-.4h-3.3v4.2Zm6.1 6.4v-11.9h7.3v1.3h-5.8v4h5.4v1.2h-5.4v4.1h5.8v1.3ZM176.6 98V85.9h4.2q1.4 0 2.1.2 1 .2 1.8.9 1 .8 1.5 2 .4 1.3.4 3 0 1.3-.3 2.4-.3 1-.8 1.8-.5.7-1.1 1-.6.5-1.5.7-.8.2-2 .2Zm1.6-1.4h2.6q1.2 0 1.9-.3.7-.2 1-.6.6-.6 1-1.5.3-1 .3-2.4 0-1.9-.7-3-.6-1-1.5-1.3-.6-.3-2-.3h-2.6Zm10.6 1.4V85.9h2.4l2.9 8.6.6 1.8.6-2 3-8.4h2.1v12.2H199V87.9l-3.6 10.2H194l-3.5-10.4v10.4Zm20-4.8V92h5v4.5q-1.1 1-2.4 1.4-1.2.5-2.6.5-1.8 0-3.2-.8-1.5-.7-2.2-2.2-.8-1.4-.8-3.2 0-1.8.8-3.3.7-1.6 2-2.3 1.5-.8 3.3-.8 1.3 0 2.4.5 1 .4 1.7 1.1.6.8.9 2l-1.5.4q-.2-.9-.7-1.4-.4-.6-1.1-.9-.8-.3-1.7-.3-1 0-2 .3-.7.4-1.2 1-.5.5-.8 1.1-.4 1.2-.4 2.5 0 1.6.5 2.7.6 1 1.7 1.6 1 .6 2.2.6 1 0 2-.4t1.6-1v-2.2Z"/>
</svg>